<svg width="19" height="23" viewBox="0 0 19 23" fill="none" xmlns="http://www.w3.org/2000/svg">
<path d="M13.6666 4.00002C14.5871 4.00002 15.3333 3.25385 15.3333 2.33335C15.3333 1.41285 14.5871 0.666687 13.6666 0.666687C12.7461 0.666687 12 1.41285 12 2.33335C12 3.25385 12.7461 4.00002 13.6666 4.00002ZM1.16663 15.6667H5.33329L6.99996 10.6667L8.66663 7.75002L6.99996 7.33335L3.16663 9.00002C2.70646 9.18419 2.18413 8.96019 1.99996 8.50002C1.81579 8.03985 2.03979 7.51752 2.49996 7.33335L6.99996 5.66669H10.3333L13.6666 7.33335L15.3333 9.00002H17.8333C18.2935 9.00002 18.6666 9.37319 18.6666 9.83335C18.6666 10.2935 18.2935 10.6667 17.8333 10.6667H13.6666L12 9.00002L10.3333 12.3334L13.6666 15.6667V21.5C13.6666 21.9602 13.2935 22.3334 12.8333 22.3334C12.3731 22.3334 12 21.9602 12 21.5V16.3167L8.66663 14L6.99996 17.3334H1.16663C0.706459 17.3334 0.333292 16.9602 0.333292 16.5C0.333292 16.0399 0.706459 15.6667 1.16663 15.6667Z" fill="#A7B0BF"/>
</svg>
